<?xml version="1.0" encoding="UTF-8" standalone="no"?>
<!-- Created with Inkscape (http://www.inkscape.org/) -->

<svg
   width="44.84552mm"
   height="14.706085mm"
   viewBox="0 0 44.84552 14.706085"
   version="1.1"
   id="svg406"
   xml:space="preserve"
   inkscape:version="1.3.2 (091e20e, 2023-11-25, custom)"
   sodipodi:docname="wasser.svg"
   inkscape:export-filename="wasser.jpg"
   inkscape:export-xdpi="500"
   inkscape:export-ydpi="500"
   xmlns:inkscape="http://www.inkscape.org/namespaces/inkscape"
   xmlns:sodipodi="http://sodipodi.sourceforge.net/DTD/sodipodi-0.dtd"
   xmlns="http://www.w3.org/2000/svg"
   xmlns:svg="http://www.w3.org/2000/svg"><sodipodi:namedview
     id="namedview408"
     pagecolor="#ffffff"
     bordercolor="#cccccc"
     borderopacity="1"
     inkscape:showpageshadow="0"
     inkscape:pageopacity="1"
     inkscape:pagecheckerboard="0"
     inkscape:deskcolor="#d1d1d1"
     inkscape:document-units="mm"
     showgrid="false"
     showguides="true"
     inkscape:zoom="2.7723345"
     inkscape:cx="128.05093"
     inkscape:cy="-0.36070683"
     inkscape:window-width="1920"
     inkscape:window-height="986"
     inkscape:window-x="-11"
     inkscape:window-y="-11"
     inkscape:window-maximized="1"
     inkscape:current-layer="layer1" /><defs
     id="defs403"><rect
       x="-163.23727"
       y="150.48438"
       width="148.95403"
       height="48.461067"
       id="rect3973" /><rect
       x="279.79889"
       y="660.85596"
       width="184.66217"
       height="57.898224"
       id="rect10581" /><inkscape:path-effect
       effect="simplify"
       id="path-effect10252"
       is_visible="true"
       lpeversion="1"
       steps="1"
       threshold="0.00108696"
       smooth_angles="360"
       helper_size="0"
       simplify_individual_paths="false"
       simplify_just_coalesce="false" /><clipPath
       id="clip0"><rect
         x="47"
         y="45"
         width="178"
         height="68"
         id="rect527" /></clipPath><clipPath
       id="clip1"><rect
         x="0"
         y="0"
         width="1130300"
         height="431800"
         id="rect530" /></clipPath><image
       width="257"
       height="105"
       preserveAspectRatio="none"
       id="img2" /><clipPath
       id="clip3"><rect
         x="0"
         y="0"
         width="1056882"
         height="431800"
         id="rect534" /></clipPath><filter
       inkscape:label="Sharpen"
       inkscape:menu="Image Effects"
       inkscape:menu-tooltip="Sharpen edges and boundaries within the object, force=0.15"
       style="color-interpolation-filters:sRGB"
       id="filter624"
       x="0"
       y="0"
       width="0.99999714"
       height="1"><feConvolveMatrix
         targetY="1"
         targetX="1"
         in="SourceGraphic"
         divisor="1"
         kernelMatrix="0 -0.3 0 -0.3 2.2 -0.3 0 -0.3 0"
         order="3 3"
         result="result1"
         id="feConvolveMatrix620" /><feBlend
         in2="SourceGraphic"
         mode="normal"
         result="fbSourceGraphic"
         id="feBlend622" /><feColorMatrix
         result="fbSourceGraphicAlpha"
         in="fbSourceGraphic"
         values="0 0 0 -1 0 0 0 0 -1 0 0 0 0 -1 0 0 0 0 1 0"
         id="feColorMatrix626" /><feConvolveMatrix
         id="feConvolveMatrix628"
         order="3 3"
         kernelMatrix="0 -0.15 0 -0.15 1.6 -0.15 0 -0.15 0"
         divisor="1"
         in="fbSourceGraphic"
         targetX="1"
         targetY="1" /></filter><inkscape:path-effect
       effect="simplify"
       id="path-effect10252-6"
       is_visible="true"
       lpeversion="1"
       steps="1"
       threshold="0.00108696"
       smooth_angles="360"
       helper_size="0"
       simplify_individual_paths="false"
       simplify_just_coalesce="false" /><inkscape:path-effect
       effect="simplify"
       id="path-effect10252-6-0"
       is_visible="true"
       lpeversion="1"
       steps="1"
       threshold="0.00108696"
       smooth_angles="360"
       helper_size="0"
       simplify_individual_paths="false"
       simplify_just_coalesce="false" /><rect
       x="279.79889"
       y="660.85596"
       width="184.66217"
       height="57.898224"
       id="rect10581-1" /><rect
       x="279.79889"
       y="660.85596"
       width="184.66217"
       height="57.898224"
       id="rect10581-13" /><rect
       x="279.79889"
       y="660.85596"
       width="184.66217"
       height="57.898224"
       id="rect10581-1-3" /><rect
       x="279.79889"
       y="660.85596"
       width="184.66217"
       height="57.898224"
       id="rect10581-13-6" /><rect
       x="279.79889"
       y="660.85596"
       width="184.66217"
       height="57.898224"
       id="rect10581-1-3-9" /></defs><g
     inkscape:label="Capa 1"
     inkscape:groupmode="layer"
     id="layer1"
     transform="translate(-116.89371,-145.4066)"><g
       id="g3820-0"
       transform="translate(39.797606,-30.432605)"><g
         id="g3992"><g
           id="g3969"
           transform="translate(-39.140814,49.668343)"><g
             aria-label="WASSER"
             transform="matrix(0.8514782,0,0,0.8514782,-184.39242,-427.58618)"
             id="text10579-8-9"
             style="font-weight:bold;font-size:8.55187px;line-height:1;font-family:Arial;-inkscape-font-specification:'Arial Bold';text-align:center;letter-spacing:0.466101px;word-spacing:0px;white-space:pre;shape-inside:url(#rect10581-13-6);display:inline;fill:#005f7f"><path
               d="m 355.36832,661.32208 0.68482,2.98564 q 0.0919,0.37999 0.0919,0.98547 0.025,-0.33406 0.0919,-0.7558 0.071,-0.42175 0.0877,-0.53867 l 0.67647,-2.67664 h 1.7538 l 0.67647,2.67664 q 0.0543,0.26725 0.0835,0.47603 0.0334,0.20879 0.0459,0.34241 0.0125,0.13362 0.0376,0.47603 0.0292,-0.5846 0.096,-0.98547 l 0.68482,-2.98564 h 2.30082 l -2.11292,6.16754 h -1.91665 l -0.60548,-2.41356 q -0.0501,-0.12945 -0.0835,-0.35077 -0.0292,-0.22131 -0.0543,-0.52196 -0.0209,-0.30483 -0.0334,-0.39252 l -0.0417,0.43845 -0.071,0.47603 -0.0501,0.35077 -0.618,2.41356 h -1.90413 l -2.12127,-6.16754 z"
               style="font-weight:normal;font-family:'Futura TS';-inkscape-font-specification:'Futura TS, Normal'"
               id="path3937" /><path
               d="m 364.05641,661.32208 h 2.54302 l 2.12961,6.16754 h -2.32587 l -0.23384,-0.78503 h -1.68282 l -0.22966,0.78503 h -2.33005 z m 0.79757,3.92518 h 0.93118 l -0.2923,-1.1692 q -0.12945,-0.61383 -0.16703,-1.11074 -0.0501,0.66394 -0.16285,1.11074 l -0.0459,0.1545 z"
               style="font-weight:normal;font-family:'Futura TS';-inkscape-font-specification:'Futura TS, Normal'"
               id="path3939" /><path
               d="m 369.70876,665.28484 q 0.79338,0.63053 1.50325,0.63053 0.25055,0 0.40087,-0.10021 0.15451,-0.10022 0.15451,-0.2589 0,-0.10857 -0.0459,-0.16703 -0.0459,-0.0626 -0.19208,-0.10856 -0.14615,-0.0501 -0.45515,-0.10022 -0.93536,-0.17956 -1.38217,-0.58043 -0.4468,-0.40087 -0.4468,-1.17337 0,-0.95624 0.73075,-1.57007 0.73493,-0.61801 1.88743,-0.61801 0.53031,0 0.98964,0.13362 0.45933,0.12945 1.00217,0.42175 l -0.61383,1.56589 q -0.58877,-0.47185 -1.25689,-0.47185 -0.23384,0 -0.37581,0.0877 -0.1378,0.0835 -0.1378,0.22966 0,0.12527 0.10439,0.19626 0.10857,0.071 0.37999,0.1211 l 0.40505,0.0919 q 0.8769,0.20044 1.27359,0.62219 0.40087,0.41757 0.40087,1.17337 0,0.99382 -0.73493,1.60348 -0.73492,0.60548 -1.93335,0.60548 -1.21514,0 -2.35093,-0.62636 z"
               style="font-weight:normal;font-family:'Futura TS';-inkscape-font-specification:'Futura TS, Normal'"
               id="path3941" /><path
               d="m 375.26088,665.28484 q 0.79339,0.63053 1.50326,0.63053 0.25054,0 0.40087,-0.10021 0.1545,-0.10022 0.1545,-0.2589 0,-0.10857 -0.0459,-0.16703 -0.0459,-0.0626 -0.19209,-0.10856 -0.14615,-0.0501 -0.45515,-0.10022 -0.93536,-0.17956 -1.38216,-0.58043 -0.4468,-0.40087 -0.4468,-1.17337 0,-0.95624 0.73075,-1.57007 0.73492,-0.61801 1.88742,-0.61801 0.53032,0 0.98965,0.13362 0.45933,0.12945 1.00217,0.42175 l -0.61383,1.56589 q -0.58878,-0.47185 -1.25689,-0.47185 -0.23384,0 -0.37582,0.0877 -0.1378,0.0835 -0.1378,0.22966 0,0.12527 0.1044,0.19626 0.10857,0.071 0.37999,0.1211 l 0.40504,0.0919 q 0.8769,0.20044 1.2736,0.62219 0.40087,0.41757 0.40087,1.17337 0,0.99382 -0.73493,1.60348 -0.73493,0.60548 -1.93336,0.60548 -1.21513,0 -2.35093,-0.62636 z"
               style="font-weight:normal;font-family:'Futura TS';-inkscape-font-specification:'Futura TS, Normal'"
               id="path3943" /><path
               d="m 380.42049,661.32208 h 4.10473 v 1.67029 h -1.8916 v 0.58043 h 1.7204 v 1.616 h -1.7204 v 0.57207 h 1.94171 v 1.72875 h -4.15484 z"
               style="font-weight:normal;font-family:'Futura TS';-inkscape-font-specification:'Futura TS, Normal'"
               id="path3945" /><path
               d="m 385.49241,661.32208 h 2.9063 q 1.02722,0 1.69951,0.60131 0.67647,0.59713 0.67647,1.50326 0,1.27777 -1.11909,1.64941 l 1.5993,2.41356 h -2.54719 l -0.83097,-1.69534 q -0.0418,-0.0752 -0.0793,-0.1545 -0.0334,-0.0793 -0.0919,-0.21296 -0.0543,-0.13363 -0.1044,-0.24637 0.1044,0.65559 0.1044,0.87272 v 1.43645 h -2.21313 z m 2.22148,2.75598 h 0.2923 q 0.28395,0 0.44262,-0.14615 0.16286,-0.14615 0.16286,-0.40087 0,-0.25054 -0.16703,-0.39252 -0.16285,-0.14615 -0.43845,-0.14615 h -0.2923 z"
               style="font-weight:normal;font-family:'Futura TS';-inkscape-font-specification:'Futura TS, Normal';fill:#005f7f;fill-opacity:1"
               id="path3947" /></g><g
             aria-label="TEK"
             transform="matrix(0.8514782,0,0,0.8514782,-162.16881,-427.58618)"
             id="text10579-0-7-1"
             style="font-weight:bold;font-size:8.55187px;line-height:1;font-family:Arial;-inkscape-font-specification:'Arial Bold';text-align:center;letter-spacing:0.466101px;word-spacing:0px;white-space:pre;shape-inside:url(#rect10581-1-3-9);display:inline;fill:#7f581a"><path
               d="m 367.39289,662.21986 v 5.26976 h -0.99382 v -5.26976 h -1.62436 v -0.84349 h 4.23418 v 0.84349 z"
               style="font-weight:normal;font-family:'Futura Md BT';-inkscape-font-specification:'Futura Md BT, Normal';letter-spacing:0.310734px"
               id="path3950" /><path
               d="m 370.07961,667.48962 v -6.11325 h 3.41156 v 0.84349 h -2.41774 v 1.53249 h 2.41774 v 0.87273 h -2.41774 v 1.97511 h 2.41774 v 0.88943 z"
               style="font-weight:normal;font-family:'Futura Md BT';-inkscape-font-specification:'Futura Md BT, Normal';letter-spacing:0.310734px"
               id="path3952" /><path
               d="m 374.94187,667.48962 v -6.11325 h 0.99382 v 2.53048 l 2.19643,-2.53048 h 1.21513 l -2.42191,2.71839 2.71004,3.39486 h -1.28195 l -2.41774,-3.12344 v 3.12344 z"
               style="font-weight:normal;font-family:'Futura Md BT';-inkscape-font-specification:'Futura Md BT, Normal';letter-spacing:0.310734px"
               id="path3954" /></g><path
             d="m 116.39013,130.16773 2.58788,-0.0358 c 2.01014,3.98421 2.92786,4.21636 3.41243,4.32986 0.25706,0.0602 0.81372,0.003 1.12668,-0.14015 0.27697,-0.1267 0.74815,-0.52079 0.86738,-0.64216 2.30627,-2.65243 3.57931,-5.914 4.81867,-5.92275 0.22303,-0.002 0.49998,0.0989 0.67403,0.3838 l 3.29719,5.20775 c 0.37596,0.47143 1.01978,1.22763 1.69105,1.18127 0.6361,-0.0439 1.19103,-0.23737 1.63465,-0.70434 1.70359,-1.79326 3.98635,-5.78177 4.86661,-6.23057 0.26561,-0.0728 0.64703,-0.0768 0.83408,0.2469 l 2.31385,3.50129 15.98044,-0.0342 0.006,-0.51984 H 144.8574 c -0.28303,0 -0.25288,-0.10138 -0.42769,-0.27996 l -2.04758,-3.26031 c -0.14756,-0.23698 -0.55466,-1.01855 -1.83476,-1.05335 -1.6483,0.13004 -2.40304,1.57621 -3.92238,3.81824 -1.22813,1.69179 -2.66207,3.81749 -3.47285,2.50979 l -2.82457,-4.51429 c -0.62872,-1.00485 -1.25976,-1.748 -2.06167,-1.70026 -1.6826,0.10017 -2.25289,1.29132 -3.11239,2.56596 -0.90694,1.32939 -2.2534,3.27541 -3.20323,3.86421 -0.32355,0.20056 -0.6809,0.14341 -1.08801,-0.29259 -0.84388,-0.90376 -1.5289,-2.62285 -1.78927,-2.87023 l -2.68568,0.0358 z"
             style="fill:#80581a;fill-opacity:1;stroke:#80581a;stroke-width:0.0486167;stroke-linecap:round;stroke-linejoin:round;stroke-miterlimit:10;stroke-opacity:1"
             id="path3649-9-2"
             sodipodi:nodetypes="ccssccccsscccccscccccsscssccc" /></g></g></g></g></svg>
